<svg width="19" height="18" viewBox="0 0 19 18" fill="none" xmlns="http://www.w3.org/2000/svg">
<path fill-rule="evenodd" clip-rule="evenodd" d="M9.30994 0.522095C11.6521 0.561598 13.884 1.45772 15.5254 3.01762C17.1668 4.57751 18.0864 6.67649 18.0864 8.86285C18.0864 11.0492 17.1668 13.1482 15.5254 14.7081C13.884 16.268 11.6521 17.1641 9.30994 17.2036C6.96779 17.1641 4.73587 16.268 3.09448 14.7081C1.45309 13.1482 0.533447 11.0492 0.533447 8.86285C0.533447 6.67649 1.45309 4.57751 3.09448 3.01762C4.73587 1.45772 6.96779 0.561598 9.30994 0.522095ZM7.45406 11.5723L5.26553 9.52785C5.08638 9.36007 4.98579 9.13286 4.98579 8.89599C4.98579 8.65912 5.08638 8.43191 5.26553 8.26413C5.44558 8.0971 5.68913 8.00335 5.943 8.00335C6.19687 8.00335 6.44042 8.0971 6.62047 8.26413L8.16218 9.70487L11.9994 6.12345C12.1792 5.95625 12.4226 5.86237 12.6764 5.86237C12.9302 5.86237 13.1736 5.95625 13.3534 6.12345C13.5323 6.29135 13.6327 6.51852 13.6327 6.75531C13.6327 6.9921 13.5323 7.21927 13.3534 7.38716L8.83819 11.6013C8.74653 11.6865 8.6374 11.7534 8.51734 11.7982C8.39728 11.843 8.26876 11.8647 8.1395 11.8619C8.01024 11.8592 7.88289 11.8322 7.76511 11.7824C7.64733 11.7326 7.54153 11.6612 7.45406 11.5723Z" fill="#FDC043"/>
</svg>
