<svg width="15" height="12" viewBox="0 0 15 12" fill="none" xmlns="http://www.w3.org/2000/svg">
<path d="M9.11532 7.57729C8.76702 7.8095 8.36244 7.93224 7.94531 7.93224C7.52821 7.93224 7.12363 7.8095 6.77533 7.57729L1.03853 3.75264C1.00686 3.73147 0.975775 3.70943 0.945313 3.68655L0.945312 9.95366C0.945312 10.6722 1.52842 11.2424 2.23411 11.2424H13.6565C14.375 11.2424 14.9453 10.6593 14.9453 9.95366V3.68652C14.9148 3.70946 14.8836 3.73155 14.8519 3.75275L9.11532 7.57729Z" fill="#FDC043"/>
<path d="M1.49356 3.0699L7.23036 6.89458C7.44752 7.03936 7.6964 7.11174 7.94529 7.11174C8.1942 7.11174 8.44311 7.03934 8.66027 6.89458L14.3971 3.0699C14.7404 2.84117 14.9453 2.45836 14.9453 2.04519C14.9453 1.33477 14.3673 0.756836 13.657 0.756836H2.23367C1.52328 0.756863 0.945313 1.3348 0.945313 2.04588C0.9451 2.24855 0.995052 2.44812 1.09071 2.6268C1.18637 2.80548 1.32477 2.9577 1.49356 3.0699Z" fill="#FDC043"/>
</svg>
