<svg width="11" height="15" viewBox="0 0 11 15" fill="none" xmlns="http://www.w3.org/2000/svg">
<path d="M5.61894 0.0576019C4.31533 0.0595679 3.06561 0.647344 2.14381 1.69204C1.22202 2.73674 0.703395 4.15309 0.70166 5.63052C0.70166 9.63141 5.28293 14.6424 5.47757 14.8537C5.51543 14.8954 5.56614 14.9187 5.61894 14.9187C5.67174 14.9187 5.72245 14.8954 5.76031 14.8537C5.95495 14.6424 10.5362 9.63141 10.5362 5.63052C10.5345 4.15309 10.0159 2.73674 9.09407 1.69204C8.17227 0.647344 6.92255 0.0595679 5.61894 0.0576019ZM5.61894 8.18477C5.17319 8.18477 4.73745 8.03497 4.36682 7.7543C3.99619 7.47364 3.70733 7.07472 3.53674 6.60799C3.36616 6.14126 3.32153 5.62769 3.40849 5.13221C3.49545 4.63673 3.7101 4.18161 4.0253 3.82439C4.34049 3.46717 4.74207 3.2239 5.17925 3.12534C5.61644 3.02679 6.06959 3.07737 6.48141 3.2707C6.89323 3.46402 7.24522 3.79141 7.49287 4.21145C7.74051 4.6315 7.87269 5.12534 7.87269 5.63052C7.87231 6.30782 7.63474 6.95725 7.21217 7.43617C6.78959 7.9151 6.21656 8.18434 5.61894 8.18477Z" fill="#FDC043"/>
</svg>
