<svg width="15" height="15" viewBox="0 0 15 15" fill="none" xmlns="http://www.w3.org/2000/svg">
<path d="M13.7013 10.651L11.8168 8.76641C11.1437 8.09336 9.99952 8.3626 9.7303 9.23755C9.52838 9.84332 8.85533 10.1798 8.24958 10.0452C6.90348 9.70868 5.08623 7.95875 4.74971 6.54533C4.54779 5.93956 4.95162 5.26651 5.55737 5.06462C6.43234 4.7954 6.70156 3.65121 6.02851 2.97815L4.14396 1.0936C3.60552 0.622465 2.79785 0.622465 2.32671 1.0936L1.04791 2.3724C-0.230888 3.71851 1.18252 7.28569 4.34587 10.449C7.50922 13.6124 11.0764 15.0931 12.4225 13.747L13.7013 12.4682C14.1725 11.9298 14.1725 11.1221 13.7013 10.651Z" fill="#323232"/>
</svg>
