<svg width="15" height="15" viewBox="0 0 15 15" fill="none" xmlns="http://www.w3.org/2000/svg">
<path d="M14.0486 11.1326L12.0406 9.1246C11.3235 8.40746 10.1043 8.69434 9.81748 9.62659C9.60234 10.272 8.8852 10.6306 8.23978 10.4872C6.80551 10.1286 4.86924 8.26403 4.51067 6.75805C4.29553 6.1126 4.72581 5.39546 5.37124 5.18035C6.30351 4.8935 6.59037 3.67437 5.87323 2.95723L3.86525 0.94925C3.29154 0.447255 2.43098 0.447255 1.92898 0.94925L0.566427 2.31181C-0.79613 3.74608 0.709854 7.5469 4.08039 10.9174C7.45093 14.288 11.2517 15.8657 12.686 14.4314L14.0486 13.0688C14.5506 12.4951 14.5506 11.6346 14.0486 11.1326Z" fill="#FDC043"/>
</svg>
