<svg width="30" height="30" viewBox="0 0 30 30" fill="none" xmlns="http://www.w3.org/2000/svg">
<path d="M28.5765 26.2384L23.172 20.8339C24.82 18.6853 25.7117 16.0524 25.7084 13.3446C25.7084 10.0365 24.4202 6.92765 22.0812 4.5887C20.9341 3.43518 19.5696 2.52065 18.0666 1.89804C16.5637 1.27544 14.9522 0.957125 13.3254 0.961532C10.0182 0.961532 6.9093 2.24975 4.56951 4.5887C-0.257545 9.41659 -0.257545 17.2725 4.56951 22.1004C5.7166 23.254 7.08113 24.1685 8.58408 24.7911C10.087 25.4137 11.6986 25.732 13.3254 25.7276C16.0701 25.7276 18.6707 24.8285 20.8155 23.1903L26.22 28.5956C26.545 28.9206 26.9716 29.0839 27.3982 29.0839C27.8249 29.0839 28.2515 28.9206 28.5765 28.5956C28.7313 28.4409 28.8541 28.2571 28.9379 28.0549C29.0217 27.8527 29.0648 27.6359 29.0648 27.417C29.0648 27.1981 29.0217 26.9813 28.9379 26.7791C28.8541 26.5769 28.7313 26.3931 28.5765 26.2384ZM6.92679 19.744C3.39795 16.2151 3.39879 10.474 6.92679 6.94515C7.76535 6.10238 8.76271 5.43425 9.86115 4.97943C10.9596 4.5246 12.1373 4.29211 13.3262 4.29539C14.515 4.29213 15.6926 4.52463 16.7909 4.97946C17.8892 5.43429 18.8864 6.1024 19.7248 6.94515C20.5678 7.78358 21.2361 8.78089 21.6911 9.87935C22.1461 10.9778 22.3786 12.1556 22.3754 13.3446C22.3754 15.7618 21.4338 18.0341 19.7248 19.744C18.0158 21.4538 15.7435 22.3937 13.3254 22.3937C10.9089 22.3937 8.6358 21.4521 6.92596 19.744H6.92679Z" fill="#323232"/>
</svg>
