<svg width="28" height="28" viewBox="0 0 28 28" fill="none" xmlns="http://www.w3.org/2000/svg">
<path d="M14.0256 27.8649C21.564 27.8649 27.675 21.7538 27.675 14.2155C27.675 6.67709 21.564 0.56604 14.0256 0.56604C6.48727 0.56604 0.376221 6.67709 0.376221 14.2155C0.376221 21.7538 6.48727 27.8649 14.0256 27.8649Z" fill="#29A71A"/>
<path d="M20.0439 8.19729C18.6238 6.76301 16.7379 5.88342 14.7263 5.71716C12.7148 5.55091 10.7101 6.10894 9.07378 7.2906C7.43747 8.47226 6.27727 10.1998 5.80247 12.1615C5.32768 14.1232 5.56953 16.1901 6.48441 17.9892L5.58634 22.3492C5.57702 22.3926 5.57676 22.4375 5.58557 22.481C5.59437 22.5245 5.61206 22.5657 5.63753 22.6021C5.67483 22.6572 5.72808 22.6997 5.79016 22.7238C5.85224 22.7479 5.9202 22.7525 5.98497 22.737L10.2582 21.7242C12.0522 22.6159 14.1045 22.8422 16.0497 22.3628C17.995 21.8834 19.7071 20.7294 20.8814 19.1062C22.0557 17.483 22.616 15.4958 22.4626 13.4982C22.3093 11.5006 21.4522 9.62225 20.0439 8.19729ZM18.7115 18.8314C17.7289 19.8112 16.4637 20.458 15.094 20.6806C13.7244 20.9032 12.3194 20.6905 11.0771 20.0723L10.4815 19.7776L7.86176 20.398L7.86952 20.3654L8.41239 17.7286L8.12079 17.1532C7.48603 15.9065 7.26211 14.491 7.48111 13.1093C7.70011 11.7276 8.35078 10.4507 9.33993 9.46141C10.5828 8.21891 12.2683 7.52092 14.0257 7.52092C15.7831 7.52092 17.4686 8.21891 18.7115 9.46141C18.7221 9.47355 18.7335 9.48495 18.7456 9.49553C19.9731 10.7412 20.6583 12.4217 20.6519 14.1705C20.6455 15.9193 19.948 17.5947 18.7115 18.8314Z" fill="white"/>
<path d="M18.4787 16.8972C18.1577 17.4029 17.6505 18.0218 17.013 18.1753C15.8962 18.4452 14.1823 18.1846 12.0495 16.1962L12.0232 16.1729C10.1479 14.4341 9.66089 12.987 9.77877 11.8392C9.84392 11.1877 10.3868 10.5983 10.8444 10.2137C10.9167 10.1519 11.0025 10.108 11.0948 10.0853C11.1872 10.0627 11.2836 10.0619 11.3763 10.0832C11.469 10.1044 11.5554 10.1471 11.6287 10.2077C11.702 10.2684 11.76 10.3453 11.7983 10.4324L12.4885 11.9834C12.5333 12.084 12.55 12.1949 12.5366 12.3042C12.5232 12.4135 12.4803 12.5171 12.4125 12.6039L12.0635 13.0568C11.9886 13.1503 11.9434 13.2641 11.9338 13.3835C11.9241 13.5029 11.9504 13.6225 12.0092 13.7268C12.2046 14.0696 12.6731 14.5737 13.1927 15.0406C13.7759 15.568 14.4227 16.0504 14.8322 16.2148C14.9417 16.2595 15.0622 16.2705 15.178 16.2461C15.2939 16.2218 15.3998 16.1633 15.4821 16.0783L15.8869 15.6703C15.965 15.5933 16.0621 15.5384 16.1684 15.5111C16.2747 15.4839 16.3863 15.4853 16.4918 15.5152L18.1313 15.9806C18.2217 16.0083 18.3046 16.0564 18.3736 16.121C18.4426 16.1857 18.496 16.2654 18.5295 16.3538C18.563 16.4423 18.5759 16.5372 18.5671 16.6314C18.5583 16.7256 18.5281 16.8165 18.4787 16.8972Z" fill="white"/>
</svg>
