<svg width="19" height="19" viewBox="0 0 19 19" fill="none" xmlns="http://www.w3.org/2000/svg">
<path d="M17.826 16.4407L14.4028 13.0174C15.4467 11.6565 16.0115 9.98873 16.0094 8.27358C16.0094 6.17825 15.1934 4.20905 13.7119 2.72753C12.9853 1.99688 12.121 1.41761 11.169 1.02325C10.217 0.628882 9.19627 0.42726 8.16584 0.430052C6.07103 0.430052 4.10183 1.24602 2.61979 2.72753C-0.437716 5.78557 -0.437716 10.7616 2.61979 13.8196C3.34637 14.5503 4.21067 15.1296 5.16266 15.524C6.11465 15.9183 7.1354 16.1199 8.16584 16.1171C9.90439 16.1171 11.5516 15.5476 12.9102 14.51L16.3334 17.9338C16.5393 18.1396 16.8095 18.2431 17.0797 18.2431C17.35 18.2431 17.6202 18.1396 17.826 17.9338C17.9241 17.8358 18.0019 17.7194 18.055 17.5913C18.108 17.4632 18.1354 17.3259 18.1354 17.1872C18.1354 17.0486 18.108 16.9113 18.055 16.7832C18.0019 16.6551 17.9241 16.5387 17.826 16.4407ZM4.11292 12.327C1.87771 10.0918 1.87824 6.45534 4.11292 4.22013C4.64407 3.68631 5.2758 3.26312 5.97157 2.97503C6.66733 2.68694 7.41332 2.53967 8.16637 2.54175C8.91933 2.53968 9.66524 2.68696 10.3609 2.97505C11.0566 3.26314 11.6882 3.68633 12.2193 4.22013C12.7533 4.75121 13.1766 5.38291 13.4648 6.07869C13.7529 6.77447 13.9003 7.52049 13.8982 8.27358C13.8982 9.80471 13.3018 11.244 12.2193 12.327C11.1368 13.4101 9.69749 14.0054 8.16584 14.0054C6.63524 14.0054 5.19542 13.409 4.11239 12.327H4.11292Z" fill="#FDC043"/>
</svg>
